<svg width="25" height="25" viewBox="0 0 25 25" fill="none" xmlns="http://www.w3.org/2000/svg">
<path d="M10.5761 17.2795C10.4449 17.2798 10.3148 17.2542 10.1935 17.204C10.0722 17.1539 9.96196 17.0804 9.86914 16.9875L5.62714 12.7445C5.53156 12.6524 5.45531 12.5421 5.40281 12.4201C5.35032 12.2981 5.32264 12.1669 5.32139 12.0342C5.32015 11.9014 5.34536 11.7697 5.39555 11.6468C5.44574 11.5238 5.51992 11.4121 5.61374 11.3182C5.70757 11.2242 5.81917 11.1499 5.94203 11.0995C6.06489 11.0491 6.19655 11.0237 6.32932 11.0248C6.4621 11.0259 6.59334 11.0534 6.71538 11.1057C6.83742 11.158 6.94782 11.2341 7.04014 11.3295L10.5751 14.8645L16.9401 8.50155C17.1276 8.31391 17.382 8.20844 17.6473 8.20834C17.9126 8.20825 18.167 8.31354 18.3546 8.50105C18.5423 8.68855 18.6477 8.94292 18.6478 9.20819C18.6479 9.47346 18.5426 9.72791 18.3551 9.91555L11.2831 16.9875C11.1903 17.0804 11.0801 17.1539 10.9588 17.204C10.8374 17.2542 10.7074 17.2798 10.5761 17.2795Z" fill="#2FAB73"/>
</svg>
